<?xml version="1.0" encoding="UTF-8"?>
<svg version="1.1" xmlns="http://www.w3.org/2000/svg" width="500" height="500">
<path d="M0 0 C165 0 330 0 500 0 C500 165 500 330 500 500 C335 500 170 500 0 500 C0 335 0 170 0 0 Z " fill="#000000" transform="translate(0,0)"/>
<path d="M0 0 C3.10799266 1.08779743 3.84304791 2.05770393 5.5 4.875 C5.79296875 7.671875 5.79296875 7.671875 5.6875 10.625 C5.66042969 11.60984375 5.63335937 12.5946875 5.60546875 13.609375 C5.57066406 14.35703125 5.53585938 15.1046875 5.5 15.875 C6.36882813 15.84019531 7.23765625 15.80539063 8.1328125 15.76953125 C17.26768485 15.55495371 22.6031462 16.58669212 29.5 22.875 C29.5 23.535 29.5 24.195 29.5 24.875 C30.31984375 24.58625 31.1396875 24.2975 31.984375 24 C33.06203125 23.62875 34.1396875 23.2575 35.25 22.875 C36.31734375 22.50375 37.3846875 22.1325 38.484375 21.75 C41.5 20.875 41.5 20.875 45.5 20.875 C44.84 22.525 44.18 24.175 43.5 25.875 C44.16 26.205 44.82 26.535 45.5 26.875 C45.5 27.535 45.5 28.195 45.5 28.875 C44.51 29.37 44.51 29.37 43.5 29.875 C43.5 30.865 43.5 31.855 43.5 32.875 C40.20703201 35.07031199 39.75029625 35.0786671 36.0625 34.5625 C35.30066406 34.46324219 34.53882813 34.36398437 33.75390625 34.26171875 C31.5 33.875 31.5 33.875 29.58984375 33.20703125 C26.5497701 32.7240289 24.3226326 33.7844374 21.5 34.875 C21.40912109 36.80666016 21.40912109 36.80666016 21.31640625 38.77734375 C21.23201753 40.45574159 21.1473687 42.13412636 21.0625 43.8125 C21.02318359 44.66263672 20.98386719 45.51277344 20.94335938 46.38867188 C20.88051758 47.60200195 20.88051758 47.60200195 20.81640625 48.83984375 C20.77974854 49.5887085 20.74309082 50.33757324 20.70532227 51.10913086 C20.5 52.875 20.5 52.875 19.5 53.875 C18.0112814 53.96169432 16.518555 53.98203494 15.02734375 53.97265625 C14.12822266 53.96943359 13.22910156 53.96621094 12.30273438 53.96289062 C10.88444336 53.95032227 10.88444336 53.95032227 9.4375 53.9375 C8.48810547 53.93298828 7.53871094 53.92847656 6.56054688 53.92382812 C4.20696935 53.9120011 1.85351523 53.89552025 -0.5 53.875 C-0.5 52.555 -0.5 51.235 -0.5 49.875 C2.5 47.875 2.5 47.875 5.5 47.875 C5.5 43.915 5.5 39.955 5.5 35.875 C3.85 35.545 2.2 35.215 0.5 34.875 C-3.11117189 31.8516933 -5.07016545 29.33271947 -6.5 24.875 C-6.6953125 21.98046875 -6.6953125 21.98046875 -6.625 19.0625 C-6.60695313 18.08667969 -6.58890625 17.11085937 -6.5703125 16.10546875 C-6.54710937 15.36941406 -6.52390625 14.63335937 -6.5 13.875 C-8.81 13.545 -11.12 13.215 -13.5 12.875 C-13.1875 11 -13.1875 11 -12.5 8.875 C-9.5 6.875 -9.5 6.875 -6.5 6.875 C-6.3453125 5.699375 -6.3453125 5.699375 -6.1875 4.5 C-5.23683352 0.87018254 -3.7608607 -0.18804303 0 0 Z " fill="#DDDDDD" transform="translate(37.5,223.125)"/>
<path d="M0 0 C3.8946741 0.77893482 5.65071354 1.90071354 8.4375 4.6875 C10.65674985 9.1259997 9.71225724 15.12615203 9.75 20 C9.77900391 21.23685547 9.80800781 22.47371094 9.83789062 23.74804688 C9.84626953 24.94107422 9.85464844 26.13410156 9.86328125 27.36328125 C9.87786377 28.45552002 9.89244629 29.54775879 9.9074707 30.6730957 C9.32934704 34.38119592 8.02118018 36.01904986 5.4375 38.6875 C4.4475 39.1825 4.4475 39.1825 3.4375 39.6875 C2.71590576 41.33113134 2.04398579 42.99800386 1.4375 44.6875 C0.4475 44.6875 -0.5425 44.6875 -1.5625 44.6875 C-1.624375 43.945 -1.68625 43.2025 -1.75 42.4375 C-2.81116383 38.84586857 -4.62416338 37.90916915 -7.5625 35.6875 C-10.63065958 30.86412606 -10.00968173 25.40441217 -10.0625 19.875 C-10.10375 18.80701172 -10.145 17.73902344 -10.1875 16.63867188 C-10.25036039 10.28584417 -9.67591165 6.5091466 -5.20532227 1.85742188 C-3.5625 0.6875 -3.5625 0.6875 0 0 Z " fill="#EEEEEE" transform="translate(364.5625,228.3125)"/>
<path d="M0 0 C3.8946741 0.77893482 5.65071354 1.90071354 8.4375 4.6875 C10.65674985 9.1259997 9.71225724 15.12615203 9.75 20 C9.77900391 21.23685547 9.80800781 22.47371094 9.83789062 23.74804688 C9.84626953 24.94107422 9.85464844 26.13410156 9.86328125 27.36328125 C9.87786377 28.45552002 9.89244629 29.54775879 9.9074707 30.6730957 C9.32934704 34.38119592 8.02118018 36.01904986 5.4375 38.6875 C2.29878812 40.25685594 -0.10105822 40.03951103 -3.5625 39.6875 C-6.72204305 37.14612841 -8.27790886 35.54127341 -9.5625 31.6875 C-9.8980972 27.77651693 -9.93259307 23.86104838 -10 19.9375 C-10.04576172 18.865 -10.09152344 17.7925 -10.13867188 16.6875 C-10.22899068 10.31020671 -9.70517369 6.52499372 -5.20751953 1.85522461 C-3.5625 0.6875 -3.5625 0.6875 0 0 Z " fill="#EDEDED" transform="translate(319.5625,228.3125)"/>
<path d="M0 0 C3.50117898 0.06765563 4.60456748 0.32316717 7.6875 2.25 C11.59738026 6.40424777 10.87099622 10.37136548 10.875 15.8125 C10.88724609 16.68455078 10.89949219 17.55660156 10.91210938 18.45507812 C10.91500977 19.71288086 10.91500977 19.71288086 10.91796875 20.99609375 C10.92207764 21.7636499 10.92618652 22.53120605 10.93041992 23.32202148 C10.6875 25.375 10.6875 25.375 8.6875 28.375 C8.66272641 31.12887627 8.66272641 31.12887627 9.0625 34.0625 C9.17335938 35.05636719 9.28421875 36.05023438 9.3984375 37.07421875 C9.54152344 38.21310547 9.54152344 38.21310547 9.6875 39.375 C7.765625 39.06640625 7.765625 39.06640625 5.6875 38.375 C4.4375 35.3125 4.4375 35.3125 3.6875 32.375 C1.7075 32.045 -0.2725 31.715 -2.3125 31.375 C-2.3125 34.015 -2.3125 36.655 -2.3125 39.375 C-3.6325 39.045 -4.9525 38.715 -6.3125 38.375 C-6.36186158 33.28468245 -6.39820105 28.19450357 -6.42236328 23.10400391 C-6.43243376 21.37155735 -6.44609089 19.63912784 -6.46337891 17.90673828 C-6.48758162 15.41955361 -6.49897239 12.93259325 -6.5078125 10.4453125 C-6.51813507 9.66817902 -6.52845764 8.89104553 -6.53909302 8.09036255 C-6.53949271 6.18374507 -6.4348214 4.27768964 -6.3125 2.375 C-3.93025072 -0.00724928 -3.2622963 0.05482851 0 0 Z " fill="#FAFAFA" transform="translate(340.3125,228.625)"/>
<path d="M0 0 C1.98 0.495 1.98 0.495 4 1 C5.98 7.93 7.96 14.86 10 22 C11.46482256 19.07035489 12.37189662 16.99048601 13.1484375 13.92578125 C13.34953125 13.17619141 13.550625 12.42660156 13.7578125 11.65429688 C14.17166006 10.08403352 14.57520507 8.51102115 14.96875 6.93554688 C15.5859375 4.67578125 15.5859375 4.67578125 17 1 C19.02587891 0.20776367 19.02587891 0.20776367 21 0 C22 1 22 1 22.11352539 4.51000977 C22.11336626 6.07048422 22.10767142 7.63096393 22.09765625 9.19140625 C22.0962413 10.01124496 22.09482635 10.83108368 22.09336853 11.67576599 C22.08775289 14.30471382 22.07519779 16.93357773 22.0625 19.5625 C22.05748701 21.34049357 22.05292376 23.11848846 22.04882812 24.89648438 C22.03777839 29.26435545 22.02050331 33.63216348 22 38 C20.02 38.495 20.02 38.495 18 39 C17.505 29.1 17.505 29.1 17 19 C15.72621924 23.84580212 15.72621924 23.84580212 14.45727539 28.69287109 C13.11111111 33.77777778 13.11111111 33.77777778 12 36 C10.68 35.67 9.36 35.34 8 35 C6.68 29.72 5.36 24.44 4 19 C3.67 25.6 3.34 32.2 3 39 C1.68 38.67 0.36 38.34 -1 38 C-1.02464928 32.74894558 -1.04283568 27.49792455 -1.05493164 22.24682617 C-1.05997218 20.45905979 -1.06680454 18.67129755 -1.07543945 16.88354492 C-1.0875173 14.31948832 -1.09323094 11.75548603 -1.09765625 9.19140625 C-1.10281754 8.3872377 -1.10797882 7.58306915 -1.11329651 6.75453186 C-1.11349215 4.83598285 -1.06201983 2.91754632 -1 1 C-0.67 0.67 -0.34 0.34 0 0 Z " fill="#F6F6F6" transform="translate(214,229)"/>
<path d="M0 0 C14.69201047 -1.03303199 14.69201047 -1.03303199 19.9375 2.875 C21.77734375 4.4921875 21.77734375 4.4921875 23 6 C23 6.66 23 7.32 23 8 C23.81984375 7.71125 24.6396875 7.4225 25.484375 7.125 C26.56203125 6.75375 27.6396875 6.3825 28.75 6 C29.81734375 5.62875 30.8846875 5.2575 31.984375 4.875 C35 4 35 4 39 4 C38.34 5.65 37.68 7.3 37 9 C37.66 9.33 38.32 9.66 39 10 C39 10.66 39 11.32 39 12 C38.34 12.33 37.68 12.66 37 13 C37 13.99 37 14.98 37 16 C33.70703201 18.19531199 33.25029625 18.2036671 29.5625 17.6875 C28.80066406 17.58824219 28.03882812 17.48898437 27.25390625 17.38671875 C25 17 25 17 23.08984375 16.33203125 C20.29354245 15.72307594 20.29354245 15.72307594 15 18 C14.67 23.94 14.34 29.88 14 36 C9.71 36 5.42 36 1 36 C1.66 35.34 2.32 34.68 3 34 C6.05383879 34.03307407 8.96870896 34.56695842 12 35 C12 29.72 12 24.44 12 19 C11.34 19 10.68 19 10 19 C10 22.96 10 26.92 10 31 C9.67 31 9.34 31 9 31 C9 26.71 9 22.42 9 18 C8.34 17.67 7.68 17.34 7 17 C8.65 16.67 10.3 16.34 12 16 C11.38511719 15.67128906 10.77023438 15.34257812 10.13671875 15.00390625 C5.55817641 12.30935741 2.62666736 10.37092532 0.9375 5.1875 C0 1.52941176 0 1.52941176 0 0 Z " fill="#F5F5F5" transform="translate(44,240)"/>
<path d="M0 0 C2 0.11328125 2 0.11328125 4 1 C5.125 2.79296875 5.125 2.79296875 6 5.1875 C6.32484375 6.07566406 6.6496875 6.96382812 6.984375 7.87890625 C8.82805308 13.5446708 10.42283281 19.25460523 12 25 C12.33 17.08 12.66 9.16 13 1 C14.32 1 15.64 1 17 1 C17 13.21 17 25.42 17 38 C14.525 38.495 14.525 38.495 12 39 C9.73095908 33.93624593 7.92010444 28.86964504 6.3125 23.5625 C5.549375 21.066875 4.78625 18.57125 4 16 C3.67 23.26 3.34 30.52 3 38 C1.02 38.495 1.02 38.495 -1 39 C-3.01974733 36.98025267 -2.16399439 32.86915483 -2.16796875 30.09765625 C-2.17129715 29.30475693 -2.17462555 28.5118576 -2.17805481 27.69493103 C-2.18312726 26.01448142 -2.18546304 24.33402171 -2.18530273 22.65356445 C-2.18748786 20.07681741 -2.20563609 17.50049924 -2.22460938 14.92382812 C-2.22754345 13.2942723 -2.22952815 11.66471444 -2.23046875 10.03515625 C-2.23765427 9.26115982 -2.24483978 8.48716339 -2.25224304 7.68971252 C-2.22882253 2.22882253 -2.22882253 2.22882253 0 0 Z " fill="#EDEDED" transform="translate(413,229)"/>
<path d="M0 0 C2.0625 0.4375 2.0625 0.4375 4 1 C4.20157715 1.78648926 4.4031543 2.57297852 4.61083984 3.38330078 C5.53001453 6.96443916 6.45247473 10.54472336 7.375 14.125 C7.69210938 15.3625 8.00921875 16.6 8.3359375 17.875 C8.8 19.67324219 8.8 19.67324219 9.2734375 21.5078125 C9.55622559 22.60754395 9.83901367 23.70727539 10.13037109 24.84033203 C10.72147364 26.98801569 11.38115222 29.11774199 12.10009766 31.22607422 C12.99994944 33.99984416 13.17013276 36.10774308 13 39 C11.68 39 10.36 39 9 39 C8.01 35.535 8.01 35.535 7 32 C3.04 32 -0.92 32 -5 32 C-5.33 34.31 -5.66 36.62 -6 39 C-7.32 39 -8.64 39 -10 39 C-9.46621146 31.39351335 -7.63089862 24.29775337 -5.56152344 16.98583984 C-4.99389175 14.97839804 -4.43761091 12.9680536 -3.8828125 10.95703125 C-1.14117751 1.14117751 -1.14117751 1.14117751 0 0 Z " fill="#ECECEC" transform="translate(111,229)"/>
<path d="M0 0 C1.32 0.33 2.64 0.66 4 1 C5.76393754 7.14596578 7.51960776 13.29422674 9.26904297 19.44433594 C9.85973582 21.50959069 10.46137383 23.57171304 11.06640625 25.6328125 C12.38644541 30.21149905 13.39115627 34.17573928 13 39 C11.68 39 10.36 39 9 39 C8.67 36.69 8.34 34.38 8 32 C2.06 32.495 2.06 32.495 -4 33 C-4.66 34.98 -5.32 36.96 -6 39 C-7.32 39 -8.64 39 -10 39 C-9.4144375 31.80856057 -7.51375482 25.03651092 -5.56152344 18.11621094 C-4.99587421 16.11036957 -4.43868622 14.10232008 -3.8828125 12.09375 C-1.15030962 2.30061924 -1.15030962 2.30061924 0 0 Z " fill="#ECECEC" transform="translate(444,229)"/>
<path d="M0 0 C1.32 0.33 2.64 0.66 4 1 C5.76393754 7.14596578 7.51960776 13.29422674 9.26904297 19.44433594 C9.85973582 21.50959069 10.46137383 23.57171304 11.06640625 25.6328125 C12.38644541 30.21149905 13.39115627 34.17573928 13 39 C11.68 39 10.36 39 9 39 C8.67 36.69 8.34 34.38 8 32 C2.06 32.495 2.06 32.495 -4 33 C-4.66 34.98 -5.32 36.96 -6 39 C-7.32 39 -8.64 39 -10 39 C-9.4144375 31.80856057 -7.51375482 25.03651092 -5.56152344 18.11621094 C-4.99587421 16.11036957 -4.43868622 14.10232008 -3.8828125 12.09375 C-1.15030962 2.30061924 -1.15030962 2.30061924 0 0 Z " fill="#ECECEC" transform="translate(250,229)"/>
<path d="M0 0 C1.32 0.33 2.64 0.66 4 1 C4.01981934 1.89307861 4.03963867 2.78615723 4.06005859 3.70629883 C4.13818698 7.02200708 4.22487971 10.33726162 4.31738281 13.65258789 C4.35564866 15.08707068 4.39050581 16.52164865 4.421875 17.95629883 C4.46757862 20.01938878 4.52556193 22.08182495 4.5859375 24.14453125 C4.6173584 25.38565674 4.6487793 26.62678223 4.68115234 27.90551758 C4.77399209 31.16636101 4.77399209 31.16636101 7 34 C10.29075996 33.62095792 10.29075996 33.62095792 13 32 C13.15888092 29.71011219 13.25138073 27.41556559 13.31640625 25.12109375 C13.33718735 24.4344313 13.35796844 23.74776886 13.37937927 23.04029846 C13.44494143 20.83947065 13.50379015 18.63852025 13.5625 16.4375 C13.60567892 14.94855486 13.649293 13.45962227 13.69335938 11.97070312 C13.8006293 8.31393447 13.90187772 4.65702682 14 1 C15.9375 0.4375 15.9375 0.4375 18 0 C20.60921133 2.60921133 19.27394479 9.83046159 19.29516602 13.56323242 C19.3122917 15.66197356 19.35614524 17.75910284 19.40039062 19.85742188 C19.41052536 21.20050926 19.41903902 22.54361005 19.42578125 23.88671875 C19.44036377 25.10576904 19.45494629 26.32481934 19.4699707 27.58081055 C18.90616403 31.68268715 17.58087736 33.79861568 15 37 C11.48746854 39.34168764 10.13530644 39.49623677 6 39 C3.30009338 37.20006226 1.4581135 35.916227 0 33 C-0.08649451 30.51900266 -0.11565054 28.06655072 -0.09765625 25.5859375 C-0.0962413 24.85629791 -0.09482635 24.12665833 -0.09336853 23.37490845 C-0.08776531 21.04156415 -0.07521235 18.70831536 -0.0625 16.375 C-0.05748541 14.79427222 -0.05292243 13.21354293 -0.04882812 11.6328125 C-0.03779484 7.75517146 -0.02052811 3.87760193 0 0 Z " fill="#EDEDED" transform="translate(379,229)"/>
<path d="M0 0 C2 0.125 2 0.125 4 1 C6.23573818 4.59627636 6.34571776 7.84264806 6.55859375 11.9765625 C6.8408785 14.3956515 6.8408785 14.3956515 10 16 C10.73828125 18.0234375 10.73828125 18.0234375 11.3125 20.375 C12.42598175 24.02604804 12.8587062 24.88275621 15.9375 27.4375 C16.948125 27.953125 17.95875 28.46875 19 29 C19.78375 29.4125 20.5675 29.825 21.375 30.25 C21.91125 30.4975 22.4475 30.745 23 31 C16.699176 33.05741192 11.73655165 33.91218388 5.25 31.75 C0.93698198 29.42760568 -0.47355896 27.57932313 -2 23 C-2.22842749 19.48298449 -2.18515245 15.96117351 -2.1875 12.4375 C-2.19974609 11.46619141 -2.21199219 10.49488281 -2.22460938 9.49414062 C-2.22654297 8.56666016 -2.22847656 7.63917969 -2.23046875 6.68359375 C-2.23457764 5.83337646 -2.23868652 4.98315918 -2.24291992 4.10717773 C-2 2 -2 2 0 0 Z " fill="#0D0D0D" transform="translate(35,225)"/>
<path d="M0 0 C2.9375 2 2.9375 2 5 4 C4.67 5.32 4.34 6.64 4 8 C3.278125 7.67 2.55625 7.34 1.8125 7 C-1.01697427 5.99396471 -3.02895466 5.83022598 -6 6 C-6.45049671 8.78111537 -6.45049671 8.78111537 -6 12 C-3.68563687 14.78578006 -3.68563687 14.78578006 -0.625 17.1875 C6.85950027 23.48260294 6.85950027 23.48260294 7.3125 28.375 C6.97673312 32.26989583 6.4315959 33.98146716 4 37 C0.96510436 39.5290797 -0.51887435 40 -4.5 40 C-8.6859814 38.80400531 -10.44638131 37.51122569 -13 34 C-12.8125 31.1875 -12.8125 31.1875 -12 29 C-8.83884224 30.36983503 -8.0072908 30.9890638 -6 34 C-3.5 34.41666667 -3.5 34.41666667 -1 34 C1.25852199 32.13019483 1.25852199 32.13019483 1.4609375 29.1953125 C0.8282453 24.80936147 -0.99440251 23.64726375 -4.375 20.875 C-9.13996629 16.92266362 -11.64868926 14.76029869 -12.4375 8.5625 C-12 5 -12 5 -9.9375 2.0625 C-6.2404927 -0.53327109 -4.43355658 -0.71253588 0 0 Z " fill="#EEEEEE" transform="translate(187,229)"/>
<path d="M0 0 C2.8125 1.25 2.8125 1.25 5 3 C5.8125 5.1875 5.8125 5.1875 6 7 C4.125 7.625 4.125 7.625 2 8 C1.34 7.34 0.68 6.68 0 6 C-2.58354218 5.83312552 -2.58354218 5.83312552 -5 6 C-5.95020416 8.239835 -5.95020416 8.239835 -6 11 C-3.70148296 13.77174113 -1.23344364 15.82213818 1.625 18 C4.85018509 20.71594534 6.65281104 22.90542046 7.35546875 27.14453125 C7.62815812 31.58863104 7.46877042 33.40786894 4.625 37 C0.82876614 39.89236866 -1.20194585 40.55362163 -6 40 C-9.50670208 37.68425334 -11.60925821 36.25595574 -12.875 32.1875 C-12.91625 31.465625 -12.9575 30.74375 -13 30 C-11.35 30.33 -9.7 30.66 -8 31 C-7.67 31.99 -7.34 32.98 -7 34 C-3.58357241 34.25015873 -3.58357241 34.25015873 0 34 C2.28568759 31.19381959 2.28568759 31.19381959 1.9296875 28.06640625 C0.76869027 24.23706666 -0.64023289 23.22058925 -3.875 20.9375 C-7.59878528 18.28308163 -9.95755877 16.13115136 -12 12 C-12.57645543 8.04716274 -12.35948461 6.53922691 -10.125 3.1875 C-6.80286756 -0.23234222 -4.70116232 -0.36871861 0 0 Z " fill="#EEEEEE" transform="translate(474,229)"/>
<path d="M0 0 C1.32 0.33 2.64 0.66 4 1 C4.83862315 4.60295699 5.66998677 8.20755065 6.5 11.8125 C6.73847656 12.83666016 6.97695312 13.86082031 7.22265625 14.91601562 C7.44824219 15.89892578 7.67382812 16.88183594 7.90625 17.89453125 C8.11572266 18.80050049 8.32519531 19.70646973 8.54101562 20.63989258 C9 23 9 23 9 26 C9.66 26 10.32 26 11 26 C11.19335938 25.03320312 11.38671875 24.06640625 11.5859375 23.0703125 C13.05729167 15.71354167 14.52864583 8.35677083 16 1 C17.32 0.67 18.64 0.34 20 0 C21.57525629 4.00660232 20.4011267 7.54141019 19.3828125 11.5390625 C19.20620087 12.26112885 19.02958923 12.98319519 18.84762573 13.72714233 C18.47354465 15.24950313 18.0950353 16.77078173 17.71240234 18.29101562 C17.12587664 20.62151675 16.55198473 22.95483987 15.98046875 25.2890625 C15.61531143 26.76840908 15.24945007 28.24758209 14.8828125 29.7265625 C14.7098465 30.42552643 14.53688049 31.12449036 14.3586731 31.84463501 C13.11820778 36.76358443 13.11820778 36.76358443 12 39 C10.68 39 9.36 39 8 39 C5.56643311 31.0650186 3.48721839 23.11306209 1.75 15 C1.57500977 14.19973389 1.40001953 13.39946777 1.21972656 12.57495117 C0.32902219 8.30826217 -0.19681956 4.38626442 0 0 Z " fill="#EBEBEB" transform="translate(128,229)"/>
<path d="M0 0 C1.27617187 0.02320313 2.55234375 0.04640625 3.8671875 0.0703125 C5.78917969 0.09738281 5.78917969 0.09738281 7.75 0.125 C9.23113281 0.15980469 9.23113281 0.15980469 10.7421875 0.1953125 C11.0721875 1.5153125 11.4021875 2.8353125 11.7421875 4.1953125 C7.4521875 4.1953125 3.1621875 4.1953125 -1.2578125 4.1953125 C-1.2578125 10.1353125 -1.2578125 16.0753125 -1.2578125 22.1953125 C2.7021875 22.1953125 6.6621875 22.1953125 10.7421875 22.1953125 C10.4121875 23.5153125 10.0821875 24.8353125 9.7421875 26.1953125 C6.1121875 26.1953125 2.4821875 26.1953125 -1.2578125 26.1953125 C-1.2578125 29.1653125 -1.2578125 32.1353125 -1.2578125 35.1953125 C3.0321875 35.1953125 7.3221875 35.1953125 11.7421875 35.1953125 C11.4121875 36.5153125 11.0821875 37.8353125 10.7421875 39.1953125 C8.45077464 39.24915771 6.15900562 39.28803337 3.8671875 39.3203125 C2.59101563 39.34351563 1.31484375 39.36671875 0 39.390625 C-3.2578125 39.1953125 -3.2578125 39.1953125 -5.2578125 37.1953125 C-5.45746623 34.56591054 -5.5376536 32.04411087 -5.5234375 29.4140625 C-5.52535095 28.64477417 -5.5272644 27.87548584 -5.52923584 27.08288574 C-5.53059758 25.4554817 -5.52690189 23.8280668 -5.51855469 22.20068359 C-5.50785471 19.70515619 -5.51845001 17.21034868 -5.53125 14.71484375 C-5.5299284 13.13541507 -5.527366 11.55598684 -5.5234375 9.9765625 C-5.52748596 9.2275769 -5.53153442 8.47859131 -5.53570557 7.70690918 C-5.46868558 0.32785885 -5.46868558 0.32785885 0 0 Z " fill="#F9F9F9" transform="translate(158.2578125,228.8046875)"/>
<path d="M0 0 C2.4375 0.875 2.4375 0.875 4.4375 3.875 C4.87425952 7.67306077 4.76168333 11.49205099 4.75 15.3125 C4.76611328 16.36244141 4.78222656 17.41238281 4.79882812 18.49414062 C4.79979492 20.01104492 4.79979492 20.01104492 4.80078125 21.55859375 C4.80525269 22.94389282 4.80525269 22.94389282 4.80981445 24.35717773 C4.37524183 27.29602853 3.38512493 28.67631782 1.4375 30.875 C-3.3125 30.125 -3.3125 30.125 -5.5625 27.875 C-6.02065988 23.74748852 -5.88650858 19.58749232 -5.875 15.4375 C-5.89111328 14.27927734 -5.90722656 13.12105469 -5.92382812 11.92773438 C-5.92447266 10.81849609 -5.92511719 9.70925781 -5.92578125 8.56640625 C-5.92876221 7.54748291 -5.93174316 6.52855957 -5.93481445 5.47875977 C-5.5625 2.875 -5.5625 2.875 -4.19995117 1.01147461 C-2.5625 -0.125 -2.5625 -0.125 0 0 Z " fill="#070707" transform="translate(320.5625,233.125)"/>
<path d="M0 0 C2.4375 0.875 2.4375 0.875 4.4375 3.875 C4.87377662 7.69406859 4.76169698 11.53371232 4.75 15.375 C4.76611328 16.43332031 4.78222656 17.49164063 4.79882812 18.58203125 C4.79947266 19.59652344 4.80011719 20.61101562 4.80078125 21.65625 C4.80376221 22.58501953 4.80674316 23.51378906 4.80981445 24.47070312 C4.37621476 27.27076202 3.61973782 28.14103876 1.4375 29.875 C1.1075 28.555 0.7775 27.235 0.4375 25.875 C-0.2225 25.875 -0.8825 25.875 -1.5625 25.875 C-2.2225 27.195 -2.8825 28.515 -3.5625 29.875 C-6.71124039 26.72625961 -5.85726873 23.25599849 -5.88476562 18.95898438 C-5.88154297 17.79689453 -5.87832031 16.63480469 -5.875 15.4375 C-5.89111328 14.27927734 -5.90722656 13.12105469 -5.92382812 11.92773438 C-5.92447266 10.81849609 -5.92511719 9.70925781 -5.92578125 8.56640625 C-5.92876221 7.54748291 -5.93174316 6.52855957 -5.93481445 5.47875977 C-5.5625 2.875 -5.5625 2.875 -4.19995117 1.01147461 C-2.5625 -0.125 -2.5625 -0.125 0 0 Z " fill="#060606" transform="translate(365.5625,233.125)"/>
<path d="M0 0 C1.98 0.495 1.98 0.495 4 1 C4 11.89 4 22.78 4 34 C7.96 34 11.92 34 16 34 C16.33 35.32 16.66 36.64 17 38 C15.06845515 39.93154485 11.6889823 39.21854009 9.125 39.25 C7.24167969 39.28867187 7.24167969 39.28867187 5.3203125 39.328125 C2 39 2 39 0.31298828 37.97412109 C-1.7393587 34.88834986 -1.38729 31.66532375 -1.328125 28.0859375 C-1.32625183 27.31569244 -1.32437866 26.54544739 -1.32244873 25.75186157 C-1.31573256 24.12619692 -1.30182656 22.5005483 -1.28125 20.875 C-1.25003066 18.37745267 -1.24027281 15.88053581 -1.234375 13.3828125 C-1.22520761 11.80467975 -1.21483267 10.22655345 -1.203125 8.6484375 C-1.19887512 7.89742767 -1.19462524 7.14641785 -1.19024658 6.37265015 C-1.11717191 1.11717191 -1.11717191 1.11717191 0 0 Z " fill="#E4E4E4" transform="translate(268,229)"/>
<path d="M0 0 C1.98 0.495 1.98 0.495 4 1 C4 11.89 4 22.78 4 34 C7.63 34 11.26 34 15 34 C15.33 35.32 15.66 36.64 16 38 C14.06658053 39.93341947 10.62520879 39.17449133 8.0625 39.1875 C6.79535156 39.20167969 5.52820313 39.21585937 4.22265625 39.23046875 C1 39 1 39 -1 37 C-1.1874551 34.28689351 -1.25565406 31.67770915 -1.23046875 28.96484375 C-1.23001053 28.1709877 -1.22955231 27.37713165 -1.2290802 26.55921936 C-1.22605765 24.88052883 -1.21817125 23.2018411 -1.20581055 21.52319336 C-1.18754885 18.94439842 -1.18530087 16.36596223 -1.18554688 13.78710938 C-1.18063196 12.15885104 -1.17480376 10.53059516 -1.16796875 8.90234375 C-1.16685593 8.12632309 -1.1657431 7.35030243 -1.16459656 6.55076599 C-1.11605007 1.11605007 -1.11605007 1.11605007 0 0 Z " fill="#E4E4E4" transform="translate(290,229)"/>
<path d="M0 0 C7 1 7 1 9 3 C9.22552341 5.85565359 9.32428763 8.5825351 9.3125 11.4375 C9.32861328 12.21416016 9.34472656 12.99082031 9.36132812 13.79101562 C9.36619616 19.44279917 9.36619616 19.44279917 7.85229492 21.74633789 C6 23 6 23 0 23 C0 15.41 0 7.82 0 0 Z " fill="#1A1A1A" transform="translate(338,233)"/>
<path d="M0 0 C1.98 0.495 1.98 0.495 4 1 C4 13.21 4 25.42 4 38 C2.02 38.495 2.02 38.495 0 39 C-1.81565436 37.18434564 -1.12861899 34.68730038 -1.13894653 32.27111816 C-1.1369223 31.47008667 -1.13489807 30.66905518 -1.1328125 29.84375 C-1.13376923 29.02628296 -1.13472595 28.20881592 -1.13571167 27.36657715 C-1.13639345 25.63484622 -1.13453929 23.90311276 -1.13037109 22.17138672 C-1.12502279 19.51133518 -1.13031612 16.8514525 -1.13671875 14.19140625 C-1.13605797 12.51302046 -1.1347768 10.83463477 -1.1328125 9.15625 C-1.13483673 8.35521851 -1.13686096 7.55418701 -1.13894653 6.72888184 C-1.11495079 1.11495079 -1.11495079 1.11495079 0 0 Z " fill="#E2E2E2" transform="translate(403,229)"/>
<path d="M0 0 C0.66 0 1.32 0 2 0 C2 5.28 2 10.56 2 16 C-1.3 16 -4.6 16 -8 16 C-4.37 16.33 -0.74 16.66 3 17 C3 17.33 3 17.66 3 18 C-3.6 18 -10.2 18 -17 18 C-17 16.68 -17 15.36 -17 14 C-14 12 -14 12 -9 13 C-9 9.04 -9 5.08 -9 1 C-6.69 1 -4.38 1 -2 1 C-1.67 3.31 -1.34 5.62 -1 8 C-0.67 5.36 -0.34 2.72 0 0 Z " fill="#CBCBCB" transform="translate(54,259)"/>
<path d="M0 0 C0.99 1.485 0.99 1.485 2 3 C4.53400331 6.5825564 5.87983078 7.73355198 10.21875 8.765625 C13.47597546 9.26128974 16.72129911 9.67837048 20 10 C20 12.97 20 15.94 20 19 C19.67 19 19.34 19 19 19 C19 16.69 19 14.38 19 12 C17.68 12 16.36 12 15 12 C15 15.96 15 19.92 15 24 C14.67 24 14.34 24 14 24 C14 20.04 14 16.08 14 12 C13.34 12 12.68 12 12 12 C12 15.96 12 19.92 12 24 C11.34 24 10.68 24 10 24 C10 19.71 10 15.42 10 11 C8.35 10.67 6.7 10.34 5 10 C2.1875 7.75 2.1875 7.75 0 5 C-0.3125 2.1875 -0.3125 2.1875 0 0 Z " fill="#DEDEDE" transform="translate(33,248)"/>
<path d="M0 0 C3.55778921 3.55778921 3.95168196 8.64709495 4.125 13.5 C4.08375 14.325 4.0425 15.15 4 16 C1.36 16 -1.28 16 -4 16 C-2.68 10.72 -1.36 5.44 0 0 Z " fill="#141414" transform="translate(112,240)"/>
<path d="M0 0 C1.86610926 2.79916389 2.68785383 4.81938269 3.625 8 C3.88539063 8.86625 4.14578125 9.7325 4.4140625 10.625 C5 13 5 13 5 16 C2.36 16 -0.28 16 -3 16 C-2.52013969 10.43109483 -1.70084819 5.32932432 0 0 Z " fill="#0F0F0F" transform="translate(445,240)"/>
<path d="M0 0 C1.86610926 2.79916389 2.68785383 4.81938269 3.625 8 C3.88539063 8.86625 4.14578125 9.7325 4.4140625 10.625 C5 13 5 13 5 16 C2.36 16 -0.28 16 -3 16 C-2.52013969 10.43109483 -1.70084819 5.32932432 0 0 Z " fill="#0F0F0F" transform="translate(251,240)"/>
<path d="M0 0 C1.32 0 2.64 0 4 0 C4.33 3.63 4.66 7.26 5 11 C4.01 11.495 4.01 11.495 3 12 C2.01 11.67 1.02 11.34 0 11 C0 7.37 0 3.74 0 0 Z " fill="#0E0E0E" transform="translate(48,260)"/>
<path d="M0 0 C0.66 0 1.32 0 2 0 C2 5.28 2 10.56 2 16 C-0.64 16 -3.28 16 -6 16 C-6 15.34 -6 14.68 -6 14 C-4.02 13.67 -2.04 13.34 0 13 C0 8.71 0 4.42 0 0 Z " fill="#2D2D2D" transform="translate(54,259)"/>
<path d="M0 0 C0.598125 0.20625 1.19625 0.4125 1.8125 0.625 C1.8125 1.945 1.8125 3.265 1.8125 4.625 C-0.8275 4.955 -3.4675 5.285 -6.1875 5.625 C-5.875 3.75 -5.875 3.75 -5.1875 1.625 C-2.1875 -0.375 -2.1875 -0.375 0 0 Z " fill="#848484" transform="translate(30.1875,230.375)"/>
<path d="M0 0 C0.99 1.485 0.99 1.485 2 3 C4.78796888 6.00807169 7.17089886 8.43999583 11 10 C9.375 10.75 9.375 10.75 7 11 C3.8125 9.5 3.8125 9.5 1 7 C0.125 3.25 0.125 3.25 0 0 Z " fill="#D4D4D4" transform="translate(33,248)"/>
<path d="M0 0 C0.33 0 0.66 0 1 0 C1.02685412 2.31243792 1.04632841 4.6249627 1.0625 6.9375 C1.07410156 8.22527344 1.08570313 9.51304687 1.09765625 10.83984375 C1 14 1 14 0 15 C-1.66617115 15.04063832 -3.33388095 15.042721 -5 15 C-5 14.34 -5 13.68 -5 13 C-3.68 12.67 -2.36 12.34 -1 12 C-0.67 8.04 -0.34 4.08 0 0 Z " fill="#2E2E2E" transform="translate(45,260)"/>
</svg>
