<?xml version="1.0" encoding="UTF-8"?>
<svg version="1.1" xmlns="http://www.w3.org/2000/svg" width="500" height="500">
<path d="M0 0 C3.44310162 2.7694513 5.20722983 4.69253204 6 9 C6.14033578 10.439735 6.24416857 11.88337149 6.31640625 13.328125 C6.35830078 14.12734375 6.40019531 14.9265625 6.44335938 15.75 C6.48267578 16.575 6.52199219 17.4 6.5625 18.25 C6.60568359 19.09046875 6.64886719 19.9309375 6.69335938 20.796875 C6.79908543 22.86440671 6.90001295 24.93218281 7 27 C8.19496094 26.97679687 9.38992187 26.95359375 10.62109375 26.9296875 C23.25134125 26.75177799 32.78614048 26.70852089 43 35 C44.0377696 36.13051713 45.06022296 37.27540041 46.0625 38.4375 C48.80749881 41.42487253 48.80749881 41.42487253 52.6328125 40.8515625 C57.23275563 40.10444635 61.47006444 38.58938855 65.8125 36.9375 C73.63014874 34 73.63014874 34 77 34 C76.54663921 38.87362847 75.2910841 41.39042389 72 45 C73.65 45.66 75.3 46.32 77 47 C75.75453595 50.73639216 74.36595047 51.18756513 71 53 C71.66 53.99 72.32 54.98 73 56 C67.56446079 60.31094489 62.75570167 60.59724319 56 60 C53.5546875 59.29296875 53.5546875 59.29296875 51.25 58.4375 C45.78130815 56.41666991 42.12551216 57.54407421 36.81640625 59.5546875 C36.1004126 59.82522949 35.38441895 60.09577148 34.64672852 60.37451172 C34.10330811 60.58092285 33.5598877 60.78733398 33 61 C33.01571045 62.29417847 33.01571045 62.29417847 33.03173828 63.61450195 C33.06583983 66.81810521 33.09090857 70.0216159 33.10986328 73.2253418 C33.1199157 74.61144048 33.1335597 75.99751799 33.15087891 77.38354492 C33.17515952 79.3766975 33.18542031 81.37000533 33.1953125 83.36328125 C33.21102295 85.16212769 33.21102295 85.16212769 33.22705078 86.99731445 C33 90 33 90 31 93 C28.23371085 93.2667616 25.69380369 93.34804189 22.9296875 93.29296875 C22.13345978 93.28872391 21.33723206 93.28447906 20.51687622 93.28010559 C17.96924271 93.26328834 15.42239511 93.22563179 12.875 93.1875 C11.14975099 93.17245705 9.42448961 93.15876796 7.69921875 93.14648438 C3.46584218 93.11337501 -0.76694559 93.06157285 -5 93 C-5.33 91.35 -5.66 89.7 -6 88 C-4.92570402 87.15504811 -3.84010798 86.32445142 -2.75 85.5 C-1.84507813 84.80390625 -1.84507813 84.80390625 -0.921875 84.09375 C1 83 1 83 5 83 C5.90322509 71.79027881 5.90322509 71.79027881 2.17578125 61.87109375 C-0.17324036 60.72649408 -2.54221029 59.88146901 -5 59 C-11.29038007 54.52955513 -14.68927118 48.55440329 -16 41 C-16.15969102 35.30649991 -15.6098757 29.65460841 -15 24 C-15.90492187 24.05220703 -15.90492187 24.05220703 -16.828125 24.10546875 C-23.4373928 24.32933105 -23.4373928 24.32933105 -26.5625 22.5 C-27.036875 22.005 -27.51125 21.51 -28 21 C-27.74981927 17.62256011 -26.74280087 16.74864631 -24.25 14.3125 C-21.23815307 12.16945507 -19.60866922 11.31841199 -16 11 C-15.9071875 9.6696875 -15.9071875 9.6696875 -15.8125 8.3125 C-14.80546264 4.20688614 -13.21120491 2.67600409 -10 0 C-6.1544104 -1.2818632 -3.93271581 -0.94927623 0 0 Z M-9.71484375 5.19921875 C-11.50762258 7.71128878 -11.07984669 9.11271344 -10.625 12.125 C-10.20171047 15.61600074 -9.9343511 18.70570959 -10.4375 22.1875 C-12.32227757 36.24362806 -12.32227757 36.24362806 -8.33984375 49.390625 C-3.86984642 54.75983462 1.28889606 58.92772173 8.375 59.75 C15.72407263 60.37428784 24.76213762 60.15857492 31 56 C30.21496094 55.731875 29.42992187 55.46375 28.62109375 55.1875 C20.47231956 52.14795723 14.84841516 48.83448606 10.94921875 40.84765625 C9.92229919 38.23412163 9.12040317 35.6213258 8.5859375 32.86328125 C7.69110128 30.01770207 5.50327476 29.43938298 3 28 C1.50720433 23.52161299 2.03578471 19.13163194 2.16015625 14.4453125 C1.95210037 9.96957389 1.18113171 7.18113171 -2 4 C-6.09755359 3.5308665 -6.09755359 3.5308665 -9.71484375 5.19921875 Z M-22 18 C-22 18.66 -22 19.32 -22 20 C-19.69 20 -17.38 20 -15 20 C-14.67 18.35 -14.34 16.7 -14 15 C-17.59857954 15 -19.09451118 15.95830515 -22 18 Z M27 62 C25.77450946 62.99964763 25.77450946 62.99964763 25.91821289 64.99365234 C25.9361792 65.84910645 25.95414551 66.70456055 25.97265625 67.5859375 C25.98490234 68.51664062 25.99714844 69.44734375 26.00976562 70.40625 C26.04478445 72.37768014 26.08381527 74.3490433 26.12695312 76.3203125 C26.13791016 77.25359375 26.14886719 78.186875 26.16015625 79.1484375 C26.17699463 80.00614746 26.19383301 80.86385742 26.21118164 81.74755859 C26 84 26 84 24 87 C21.8359375 87.51171875 21.8359375 87.51171875 19.375 87.6875 C18.55773437 87.75324219 17.74046875 87.81898438 16.8984375 87.88671875 C15.95871094 87.94279297 15.95871094 87.94279297 15 88 C15 88.33 15 88.66 15 89 C19.29 89 23.58 89 28 89 C28 80.09 28 71.18 28 62 C27.67 62 27.34 62 27 62 Z M9 64 C9.00523682 64.6612085 9.01047363 65.32241699 9.01586914 66.00366211 C9.03657656 68.98159851 9.04964012 71.95951982 9.0625 74.9375 C9.07087891 75.97841797 9.07925781 77.01933594 9.08789062 78.09179688 C9.09111328 79.08115234 9.09433594 80.07050781 9.09765625 81.08984375 C9.10289307 82.00628662 9.10812988 82.92272949 9.11352539 83.86694336 C9 86 9 86 8 87 C5.67182036 87.36760731 3.3381615 87.70241581 1 88 C1 88.33 1 88.66 1 89 C5.0100934 89.17864631 5.0100934 89.17864631 9 89 C11.23131867 87.1923213 11.23131867 87.1923213 11.22705078 84.66162109 C11.21657715 83.70852051 11.20610352 82.75541992 11.1953125 81.7734375 C11.18886719 80.7421875 11.18242188 79.7109375 11.17578125 78.6484375 C11.15902344 77.56820312 11.14226562 76.48796875 11.125 75.375 C11.11597656 74.28703125 11.10695313 73.1990625 11.09765625 72.078125 C11.07403409 69.38519848 11.04109556 66.69270745 11 64 C10.34 64 9.68 64 9 64 Z M15 64 C15 70.27 15 76.54 15 83 C17.31 83.33 19.62 83.66 22 84 C23.11063318 79.69107728 22.99668734 75.64638988 22.6875 71.25 C22.65205078 70.56550781 22.61660156 69.88101563 22.58007812 69.17578125 C22.46516617 67.44352648 22.24111252 65.71923707 22 64 C19.60532389 62.54685336 19.60532389 62.54685336 15 64 Z " fill="#FEFFFE" transform="translate(99,220)"/>
<path d="M0 0 C2.60461657 1.79011227 2.8820787 3.1232969 3.68457031 6.15087891 C3.94238281 7.09189453 4.20019531 8.03291016 4.46582031 9.00244141 C4.71847656 9.98728516 4.97113281 10.97212891 5.23144531 11.98681641 C5.49957031 12.97939453 5.76769531 13.97197266 6.04394531 14.99462891 C6.70417387 17.44690641 7.34927603 19.90218383 7.98144531 22.36181641 C8.14225586 21.7361377 8.30306641 21.11045898 8.46875 20.46582031 C9.20635018 17.63484558 9.96853028 14.81106916 10.73144531 11.98681641 C10.98410156 11.00197266 11.23675781 10.01712891 11.49707031 9.00244141 C11.75488281 8.06142578 12.01269531 7.12041016 12.27832031 6.15087891 C12.50874023 5.28156738 12.73916016 4.41225586 12.9765625 3.51660156 C13.98144531 1.36181641 13.98144531 1.36181641 15.96289062 0 C17.98144531 -0.63818359 17.98144531 -0.63818359 19.98144531 0.36181641 C19.98144531 13.23181641 19.98144531 26.10181641 19.98144531 39.36181641 C18.49644531 39.85681641 18.49644531 39.85681641 16.98144531 40.36181641 C16.32144531 40.03181641 15.66144531 39.70181641 14.98144531 39.36181641 C14.66903161 36.81240267 14.4684111 34.35820127 14.35644531 31.79931641 C14.31777344 31.08839844 14.27910156 30.37748047 14.23925781 29.64501953 C14.14472748 27.88439216 14.06198715 26.12313913 13.98144531 24.36181641 C12.99144531 27.99181641 12.00144531 31.62181641 10.98144531 35.36181641 C8.50644531 35.85681641 8.50644531 35.85681641 5.98144531 36.36181641 C5.49946069 35.11290027 5.02098854 33.86262832 4.54394531 32.61181641 C4.27710938 31.91572266 4.01027344 31.21962891 3.73535156 30.50244141 C2.98144531 28.36181641 2.98144531 28.36181641 1.98144531 24.36181641 C1.65144531 29.31181641 1.32144531 34.26181641 0.98144531 39.36181641 C-0.50355469 39.85681641 -0.50355469 39.85681641 -2.01855469 40.36181641 C-2.67855469 40.03181641 -3.33855469 39.70181641 -4.01855469 39.36181641 C-4.01855469 26.49181641 -4.01855469 13.62181641 -4.01855469 0.36181641 C-2.01855469 -0.63818359 -2.01855469 -0.63818359 0 0 Z " fill="#FFFFFF" transform="translate(198.0185546875,271.63818359375)"/>
<path d="M0 0 C1.98 0 3.96 0 6 0 C9.00974439 6.47095043 10.95675081 13.16568374 13 20 C13.33 13.4 13.66 6.8 14 0 C15.65 0 17.3 0 19 0 C19.02464849 5.39346988 19.04283531 10.78690725 19.05493164 16.18041992 C19.05997231 18.01668875 19.06680477 19.85295354 19.07543945 21.68920898 C19.08751672 24.32276401 19.09323081 26.95626616 19.09765625 29.58984375 C19.10281754 30.41588608 19.10797882 31.24192841 19.11329651 32.09300232 C19.11349205 34.06236368 19.06204152 36.03161614 19 38 C18 39 18 39 15.4375 39.0625 C14.633125 39.041875 13.82875 39.02125 13 39 C10.24334756 32.42321498 7.95931288 25.85759508 6 19 C5.67 25.27 5.34 31.54 5 38 C2.525 38.495 2.525 38.495 0 39 C-1.51914292 35.96171416 -1.1421287 32.80463483 -1.1328125 29.47265625 C-1.13376923 28.72793564 -1.13472595 27.98321503 -1.13571167 27.21592712 C-1.13639257 25.63980017 -1.13454455 24.06367041 -1.13037109 22.48754883 C-1.12502906 20.07561935 -1.1303152 17.66387673 -1.13671875 15.25195312 C-1.1360578 13.72135376 -1.1347763 12.1907545 -1.1328125 10.66015625 C-1.13483673 9.93820572 -1.13686096 9.21625519 -1.13894653 8.47242737 C-1.12445613 5.37395742 -0.98766804 2.96300412 0 0 Z " fill="#FFFEFF" transform="translate(393,272)"/>
<path d="M0 0 C3.90751777 3.12601422 5.37097065 5.11191779 6 10 C6.16037149 13.12632243 6.18507739 16.24499371 6.1875 19.375 C6.19974609 20.2 6.21199219 21.025 6.22460938 21.875 C6.2367452 26.97204664 5.76881382 31.20248041 4 36 C0.90322581 39 0.90322581 39 -2 39 C-2 40.65 -2 42.3 -2 44 C-3.9375 44.5625 -3.9375 44.5625 -6 45 C-7 44 -7 44 -7.0625 41.4375 C-7.041875 40.633125 -7.02125 39.82875 -7 39 C-7.598125 38.7525 -8.19625 38.505 -8.8125 38.25 C-11.41972413 36.76015764 -12.45281995 35.57490877 -14 33 C-14.37231445 30.13085938 -14.37231445 30.13085938 -14.36328125 26.84375 C-14.36263672 25.65652344 -14.36199219 24.46929687 -14.36132812 23.24609375 C-14.34521484 22.00988281 -14.32910156 20.77367187 -14.3125 19.5 C-14.31572266 18.26378906 -14.31894531 17.02757812 -14.32226562 15.75390625 C-14.26036517 5.38839412 -14.26036517 5.38839412 -12 2 C-7.71214737 -0.82608469 -4.91577196 -1.67345428 0 0 Z M-7.72729492 6.17163086 C-9.43990743 8.63197137 -9.37279141 10.27054243 -9.36328125 13.25390625 C-9.36263672 14.27291016 -9.36199219 15.29191406 -9.36132812 16.34179688 C-9.34521484 17.40462891 -9.32910156 18.46746094 -9.3125 19.5625 C-9.31572266 20.62919922 -9.31894531 21.69589844 -9.32226562 22.79492188 C-9.66717207 28.45527674 -9.66717207 28.45527674 -7 33 C-6.67 32.01 -6.34 31.02 -6 30 C-3.9375 29.3125 -3.9375 29.3125 -2 29 C-1.67 30.32 -1.34 31.64 -1 33 C0.9943416 29.0113168 0.18485036 23.94765918 0.1875 19.5625 C0.19974609 18.49966797 0.21199219 17.43683594 0.22460938 16.34179688 C0.22654297 15.32279297 0.22847656 14.30378906 0.23046875 13.25390625 C0.23457764 12.31877197 0.23868652 11.3836377 0.24291992 10.42016602 C0.16485344 7.73938224 0.16485344 7.73938224 -2 5 C-5.7961421 4.6257668 -5.7961421 4.6257668 -7.72729492 6.17163086 Z " fill="#FFFFFE" transform="translate(351,272)"/>
<path d="M0 0 C1.89382164 -0.13592021 3.79049704 -0.2324094 5.6875 -0.3125 C6.74324219 -0.37050781 7.79898437 -0.42851562 8.88671875 -0.48828125 C12 0 12 0 14.8671875 1.859375 C17.94926943 6.39782531 17.62448405 10.20595679 17.4375 15.5625 C17.43169922 16.50802734 17.42589844 17.45355469 17.41992188 18.42773438 C17.29652062 25.41224541 17.29652062 25.41224541 15.91821289 28.14428711 C15.61520264 28.75667236 15.31219238 29.36905762 15 30 C15.63028587 31.68076231 16.29788106 33.34795544 17 35 C16.625 37.3125 16.625 37.3125 16 39 C14.68 39 13.36 39 12 39 C10.5393715 36.35261084 10 35.10551666 10 32 C8.35 32 6.7 32 5 32 C5 33.98 5 35.96 5 38 C3.68 38.66 2.36 39.32 1 40 C-1.54956487 37.45043513 -1.23726715 35.81210813 -1.25224304 32.3359375 C-1.24505753 31.56507813 -1.23787201 30.79421875 -1.23046875 30 C-1.23001053 29.20851563 -1.22955231 28.41703125 -1.2290802 27.6015625 C-1.22605731 25.9270681 -1.2181699 24.25257652 -1.20581055 22.578125 C-1.18757326 20.01031569 -1.18530072 17.44286726 -1.18554688 14.875 C-1.18063094 13.24999687 -1.17480229 11.6249962 -1.16796875 10 C-1.16685593 9.22914063 -1.1657431 8.45828125 -1.16459656 7.6640625 C-1.11606989 2.23213978 -1.11606989 2.23213978 0 0 Z M5 5 C5 11.93 5 18.86 5 26 C6.65 26 8.3 26 10 26 C12.54200295 23.45799705 12.28716913 21.75775617 12.32226562 18.28320312 C12.31904297 17.55037109 12.31582031 16.81753906 12.3125 16.0625 C12.32861328 15.33353516 12.34472656 14.60457031 12.36132812 13.85351562 C12.36576993 9.71212905 12.36576993 9.71212905 10.73046875 5.99609375 C8.75499726 4.6674164 8.75499726 4.6674164 5 5 Z " fill="#FFFFFF" transform="translate(316,272)"/>
<path d="M0 0 C3.42389796 2.83236069 4.78355645 4.51995118 5.43261719 8.95825195 C5.56508492 12.52640897 5.53370996 16.05579908 5.4375 19.625 C5.43169922 20.8521875 5.42589844 22.079375 5.41992188 23.34375 C5.28020197 33.56006937 5.28020197 33.56006937 3 37 C-0.1907731 39.10300954 -2.22476157 40 -6.0625 40 C-9.82246507 38.72001189 -11.53785559 37.09526726 -14 34 C-15.39936259 29.32962735 -15.1837595 24.45772494 -15.1875 19.625 C-15.19974609 18.8 -15.21199219 17.975 -15.22460938 17.125 C-15.23674534 12.02789264 -14.76527305 7.79855914 -13 3 C-8.99668998 -0.87417099 -5.30422078 -1.59126623 0 0 Z M-7 5 C-9.20544434 8.3081665 -9.25627135 9.36771832 -9.265625 13.21875 C-9.26820313 14.23324219 -9.27078125 15.24773437 -9.2734375 16.29296875 C-9.26570313 17.35128906 -9.25796875 18.40960938 -9.25 19.5 C-9.25773437 20.55832031 -9.26546875 21.61664063 -9.2734375 22.70703125 C-9.27085937 23.72152344 -9.26828125 24.73601562 -9.265625 25.78125 C-9.26336914 26.71001953 -9.26111328 27.63878906 -9.25878906 28.59570312 C-9.15925145 31.26213233 -9.15925145 31.26213233 -7 34 C-4.02934491 33.65772428 -4.02934491 33.65772428 -1 33 C0.99778712 29.00442575 0.22876505 23.95548005 0.25 19.5625 C0.270625 18.49966797 0.29125 17.43683594 0.3125 16.34179688 C0.31765625 15.32279297 0.3228125 14.30378906 0.328125 13.25390625 C0.3374707 12.31877197 0.34681641 11.3836377 0.35644531 10.42016602 C0.17858772 7.96769711 0.17858772 7.96769711 -1.27050781 6.17163086 C-3.20377564 4.62609262 -3.20377564 4.62609262 -7 5 Z " fill="#FFFEFF" transform="translate(306,272)"/>
<path d="M0 0 C1.65 0 3.3 0 5 0 C7.99337084 10.1843594 10.95670737 20.37993703 13.5 30.6875 C13.68401367 31.39898193 13.86802734 32.11046387 14.05761719 32.84350586 C14.53125 34.82421875 14.53125 34.82421875 15 38 C14.34 38.66 13.68 39.32 13 40 C10.875 39.625 10.875 39.625 9 39 C8.67 36.69 8.34 34.38 8 32 C4.37 32 0.74 32 -3 32 C-3.2165625 33.423125 -3.2165625 33.423125 -3.4375 34.875 C-4 38 -4 38 -5 40 C-6.9375 39.6875 -6.9375 39.6875 -9 39 C-10.31883777 35.04348668 -9.23364285 32.22234622 -8.1640625 28.33984375 C-7.96525482 27.59416641 -7.76644714 26.84848907 -7.56161499 26.08021545 C-7.14002183 24.50482256 -6.71443249 22.93049445 -6.28515625 21.35717773 C-5.62714046 18.94534544 -4.98045651 16.53070467 -4.3359375 14.11523438 C-3.92513469 12.58576128 -3.51369774 11.05645834 -3.1015625 9.52734375 C-2.80930283 8.44138161 -2.80930283 8.44138161 -2.51113892 7.33348083 C-1.11816576 2.23633152 -1.11816576 2.23633152 0 0 Z M2 13 C1.49528803 14.76949612 0.99639315 16.54065223 0.5 18.3125 C0.2215625 19.29863281 -0.056875 20.28476562 -0.34375 21.30078125 C-1.11812196 24.02287203 -1.11812196 24.02287203 -1 27 C1.31 27 3.62 27 6 27 C5.71715982 25.22773547 5.42339502 23.457212 5.125 21.6875 C4.88136719 20.20830078 4.88136719 20.20830078 4.6328125 18.69921875 C4.11914546 15.79940173 4.11914546 15.79940173 2 13 Z " fill="#FEFFFF" transform="translate(425,272)"/>
<path d="M0 0 C1.65 0 3.3 0 5 0 C7.99337084 10.1843594 10.95670737 20.37993703 13.5 30.6875 C13.68401367 31.39898193 13.86802734 32.11046387 14.05761719 32.84350586 C14.53125 34.82421875 14.53125 34.82421875 15 38 C14.34 38.66 13.68 39.32 13 40 C10.875 39.625 10.875 39.625 9 39 C8.67 36.69 8.34 34.38 8 32 C4.37 32 0.74 32 -3 32 C-3.2165625 33.423125 -3.2165625 33.423125 -3.4375 34.875 C-4 38 -4 38 -5 40 C-6.9375 39.6875 -6.9375 39.6875 -9 39 C-10.31883777 35.04348668 -9.23364285 32.22234622 -8.1640625 28.33984375 C-7.96525482 27.59416641 -7.76644714 26.84848907 -7.56161499 26.08021545 C-7.14002183 24.50482256 -6.71443249 22.93049445 -6.28515625 21.35717773 C-5.62714046 18.94534544 -4.98045651 16.53070467 -4.3359375 14.11523438 C-3.92513469 12.58576128 -3.51369774 11.05645834 -3.1015625 9.52734375 C-2.80930283 8.44138161 -2.80930283 8.44138161 -2.51113892 7.33348083 C-1.11816576 2.23633152 -1.11816576 2.23633152 0 0 Z M2 13 C1.49528803 14.76949612 0.99639315 16.54065223 0.5 18.3125 C0.2215625 19.29863281 -0.056875 20.28476563 -0.34375 21.30078125 C-1.11812196 24.02287203 -1.11812196 24.02287203 -1 27 C1.31 27 3.62 27 6 27 C5.71715982 25.22773547 5.42339502 23.457212 5.125 21.6875 C4.88136719 20.20830078 4.88136719 20.20830078 4.6328125 18.69921875 C4.11914546 15.79940173 4.11914546 15.79940173 2 13 Z " fill="#FFFEFF" transform="translate(203,218)"/>
<path d="M0 0 C1.67542976 0.28604898 3.34385343 0.61781233 5 1 C6.76393754 7.14596578 8.51960776 13.29422674 10.26904297 19.44433594 C10.85973582 21.50959069 11.46137383 23.57171304 12.06640625 25.6328125 C13.38644541 30.21149905 14.39115627 34.17573928 14 39 C12.02 39.495 12.02 39.495 10 40 C8.23537317 36.91190305 8 35.76687864 8 32 C4.37 32 0.74 32 -3 32 C-3.66 34.31 -4.32 36.62 -5 39 C-6.98 39.495 -6.98 39.495 -9 40 C-10.42048756 35.36282458 -9.42473208 31.63997214 -8.1640625 27.109375 C-7.86585098 25.99154633 -7.86585098 25.99154633 -7.56161499 24.85113525 C-7.14120521 23.28317595 -6.71561101 21.71659863 -6.28515625 20.15136719 C-5.62418368 17.74703056 -4.97873217 15.33894082 -4.3359375 12.9296875 C-3.92537163 11.40600924 -3.51394344 9.88256302 -3.1015625 8.359375 C-2.90672272 7.63651306 -2.71188293 6.91365112 -2.51113892 6.16888428 C-1.11738765 1.11738765 -1.11738765 1.11738765 0 0 Z M2 14 C1.51891725 15.41601714 1.04021859 16.83284437 0.5625 18.25 C0.29566406 19.03890625 0.02882812 19.8278125 -0.24609375 20.640625 C-0.91954708 22.74821988 -1.49150595 24.84753973 -2 27 C0.64 27 3.28 27 6 27 C5.01 22.71 4.02 18.42 3 14 C2.67 14 2.34 14 2 14 Z " fill="#FFFFFF" transform="translate(231,272)"/>
<path d="M0 0 C0.99 0.33 1.98 0.66 3 1 C3.01981934 1.89307861 3.03963867 2.78615723 3.06005859 3.70629883 C3.13818698 7.02200708 3.22487971 10.33726162 3.31738281 13.65258789 C3.35564866 15.08707068 3.39050581 16.52164865 3.421875 17.95629883 C3.46757862 20.01938878 3.52556193 22.08182495 3.5859375 24.14453125 C3.6173584 25.38565674 3.6487793 26.62678223 3.68115234 27.90551758 C3.77399209 31.16636101 3.77399209 31.16636101 6 34 C8.475 33.505 8.475 33.505 11 33 C12.12183708 29.63448877 12.20800968 26.90939768 12.31640625 23.36328125 C12.35830078 22.06455078 12.40019531 20.76582031 12.44335938 19.42773438 C12.48316987 18.05599239 12.52288216 16.68424756 12.5625 15.3125 C12.60570835 13.92902355 12.64932339 12.54555973 12.69335938 11.16210938 C12.79958028 7.77484281 12.90162358 4.38750201 13 1 C14.32 1 15.64 1 17 1 C19.6574101 3.6574101 18.27419197 11.17534154 18.29516602 14.99047852 C18.31229585 17.16162476 18.35615037 19.3312147 18.40039062 21.50195312 C18.41052493 22.89061381 18.41903873 24.27928745 18.42578125 25.66796875 C18.44036377 26.92891357 18.45494629 28.1898584 18.4699707 29.48901367 C17.91192433 33.65798245 16.67104481 35.78300472 14 39 C10.3273092 40.60262871 8.16234024 41.29058506 4.25 40.3125 C0.7327686 38.26078168 -0.70008725 36.89973826 -2 33 C-2.0845387 30.5589224 -2.11605786 28.14740787 -2.09765625 25.70703125 C-2.0962413 25.00100266 -2.09482635 24.29497406 -2.09336853 23.56755066 C-2.08777764 21.31582374 -2.07522688 19.06419679 -2.0625 16.8125 C-2.05748382 15.28450665 -2.05292112 13.75651173 -2.04882812 12.22851562 C-2.0378112 8.48563865 -2.02055287 4.74283627 -2 1 C-1.34 0.67 -0.68 0.34 0 0 Z " fill="#FFFFFF" transform="translate(362,271)"/>
<path d="M0 0 C2 1.9375 2 1.9375 3 4 C2.67 4.99 2.34 5.98 2 7 C-1.33333333 6.33333333 -4.66666667 5.66666667 -8 5 C-8.79953138 8.28696233 -9.09658936 9.71023192 -8 13 C-6.67661368 13.68620031 -5.34050052 14.34786461 -4 15 C3.71054846 21.0142278 3.71054846 21.0142278 4.3359375 25.3046875 C4.44191794 32.27820069 4.44191794 32.27820069 2.125 36.0625 C-1.19335827 39.08806195 -3.47515259 39.28393608 -7.96484375 39.21875 C-10.93774757 38.89920564 -12.70998159 37.88589752 -15 36 C-16.69057529 33.61782573 -17.10750048 32.64500286 -16.625 29.75 C-16.41875 29.1725 -16.2125 28.595 -16 28 C-13.625 28.3125 -13.625 28.3125 -11 29 C-10.34 29.99 -9.68 30.98 -9 32 C-6.41619823 32.25030977 -6.41619823 32.25030977 -4 32 C-2.80835005 29.476506 -1.9641359 27.62762177 -2.125 24.8125 C-3.29205785 22.39502303 -4.61518635 22.16667143 -7 21 C-11.1137358 18.04054028 -14.98864413 15.18319884 -16 10 C-15.861629 6.05642641 -15.5985649 3.78432642 -13.1875 0.625 C-8.50270863 -2.85513073 -5.40675455 -2.06439719 0 0 Z " fill="#FFFFFF" transform="translate(283,219)"/>
<path d="M0 0 C1 1.625 1 1.625 0.6875 3.8125 C0.460625 4.410625 0.23375 5.00875 0 5.625 C-2.41313129 5.15578003 -4.80619179 4.6748364 -7.1875 4.0625 C-9.01326836 3.54678649 -9.01326836 3.54678649 -11 3.625 C-10.76295339 7.59697606 -10.32992608 9.27283171 -7.56640625 12.22265625 C-6.57511719 13.03605469 -5.58382813 13.84945313 -4.5625 14.6875 C1.73296598 19.88310621 1.73296598 19.88310621 3 24.625 C3 29.82077135 2.83816688 31.64373146 -0.5625 35.625 C-4.65007444 38.00322513 -7.39079334 38.75901116 -12 37.625 C-14.77025463 36.23987269 -15.88240065 35.06023925 -18 32.625 C-18.375 29.3125 -18.375 29.3125 -18 26.625 C-15.625 26.9375 -15.625 26.9375 -13 27.625 C-12.34 28.615 -11.68 29.605 -11 30.625 C-7.91634129 30.8752157 -7.91634129 30.8752157 -5 30.625 C-4.05392193 27.87538489 -4.05392193 27.87538489 -4 24.625 C-5.99382364 22.14782518 -8.15536682 20.31924727 -10.6015625 18.30859375 C-16.7713198 13.21778415 -16.7713198 13.21778415 -17.3359375 9.28515625 C-17.4414083 2.27134787 -17.4414083 2.27134787 -15.25 -0.9375 C-9.9823153 -4.30296523 -5.24759777 -3.60772347 0 0 Z " fill="#FFFFFF" transform="translate(461,274.375)"/>
<path d="M0 0 C2.7885289 -0.22107787 5.34653181 -0.28107535 8.125 -0.1875 C8.87910156 -0.17396484 9.63320313 -0.16042969 10.41015625 -0.14648438 C12.27374127 -0.11109985 14.13695978 -0.05729167 16 0 C15.67 1.65 15.34 3.3 15 5 C11.37 5 7.74 5 4 5 C4 10.28 4 15.56 4 21 C7.63 21 11.26 21 15 21 C15.33 22.32 15.66 23.64 16 25 C15 26 15 26 12.49609375 26.09765625 C11.48675781 26.08605469 10.47742188 26.07445312 9.4375 26.0625 C8.42558594 26.05347656 7.41367188 26.04445312 6.37109375 26.03515625 C5.19740234 26.01775391 5.19740234 26.01775391 4 26 C4 28.64 4 31.28 4 34 C7.63 34 11.26 34 15 34 C15.33 35.65 15.66 37.3 16 39 C13.37438891 39.08074203 10.75124324 39.1403623 8.125 39.1875 C7.37863281 39.21263672 6.63226563 39.23777344 5.86328125 39.26367188 C3.6953125 39.29296875 3.6953125 39.29296875 0 39 C-2.40491105 35.39263342 -2.28982863 32.76038725 -2.265625 28.59375 C-2.26753845 27.87264038 -2.2694519 27.15153076 -2.27142334 26.40856934 C-2.27278301 24.88549449 -2.26910177 23.36240798 -2.26074219 21.83935547 C-2.25003914 19.50852417 -2.26064438 17.17846358 -2.2734375 14.84765625 C-2.27211587 13.3671858 -2.26955339 11.88671583 -2.265625 10.40625 C-2.27169769 9.36084045 -2.27169769 9.36084045 -2.27789307 8.29431152 C-2.24247329 4.63804039 -2.08630382 3.12945572 0 0 Z " fill="#FFFFFF" transform="translate(247,218)"/>
<path d="M0 0 C1.98 0.495 1.98 0.495 4 1 C5.98 8.92 7.96 16.84 10 25 C11.81253066 17.52505764 11.81253066 17.52505764 13.58886719 10.04150391 C13.82250977 9.11257324 14.05615234 8.18364258 14.296875 7.2265625 C14.64250488 5.79691162 14.64250488 5.79691162 14.99511719 4.33837891 C16 2 16 2 18.10644531 0.67333984 C18.73131836 0.4511377 19.35619141 0.22893555 20 0 C21 1 21 1 21.00415039 2.75341797 C20.26516171 10.72988224 18.38110046 18.36971868 16.4375 26.125 C16.10418953 27.47640772 15.77150277 28.82796943 15.43945312 30.1796875 C14.6323998 33.45468648 13.81911651 36.7280013 13 40 C11.02 40.495 11.02 40.495 9 41 C6.41388711 37.13700241 5.22162823 33.64233034 4.17578125 29.125 C4.02465378 28.47805176 3.87352631 27.83110352 3.71781921 27.16455078 C3.40202747 25.80402144 3.09047297 24.44250231 2.78295898 23.08007812 C2.3133726 21.00385809 1.82867181 18.93160114 1.34179688 16.859375 C-1.30998311 5.36072853 -1.30998311 5.36072853 -1 1 C-0.67 0.67 -0.34 0.34 0 0 Z " fill="#FFFFFF" transform="translate(221,217)"/>
<path d="M0 0 C1.32 0.66 2.64 1.32 4 2 C4 12.89 4 23.78 4 35 C7.96 35 11.92 35 16 35 C16.33 35.99 16.66 36.98 17 38 C16.67 38.66 16.34 39.32 16 40 C13.37472811 40.05382106 10.75055287 40.09358313 8.125 40.125 C7.37863281 40.14175781 6.63226563 40.15851563 5.86328125 40.17578125 C3.90805539 40.1933959 1.95257979 40.10320189 0 40 C-2.54565412 37.45434588 -2.2472401 35.80824286 -2.27789307 32.3359375 C-2.2738446 31.56507813 -2.26979614 30.79421875 -2.265625 30 C-2.26753845 29.20851563 -2.2694519 28.41703125 -2.27142334 27.6015625 C-2.27278518 25.9270801 -2.26908882 24.25258715 -2.26074219 22.578125 C-2.2500424 20.01017619 -2.26063725 17.44292697 -2.2734375 14.875 C-2.2721159 13.24999845 -2.26955351 11.62499734 -2.265625 10 C-2.26967346 9.22914063 -2.27372192 8.45828125 -2.27789307 7.6640625 C-2.22992132 2.22992132 -2.22992132 2.22992132 0 0 Z " fill="#FFFFFF" transform="translate(272,271)"/>
<path d="M0 0 C1.98 0.495 1.98 0.495 4 1 C4 12.22 4 23.44 4 35 C7.96 35 11.92 35 16 35 C16.33 36.32 16.66 37.64 17 39 C16 40 16 40 12.40234375 40.09765625 C10.91403133 40.0909822 9.42573568 40.07902183 7.9375 40.0625 C6.79958008 40.05573242 6.79958008 40.05573242 5.63867188 40.04882812 C3.75908129 40.0370068 1.87953101 40.01907078 0 40 C-1.6082664 36.78346721 -1.14179685 33.27848471 -1.1328125 29.74609375 C-1.13376923 28.93004166 -1.13472595 28.11398956 -1.13571167 27.27320862 C-1.13639256 25.54745405 -1.13454461 23.82169692 -1.13037109 22.09594727 C-1.12501468 19.44476617 -1.13032267 16.79375397 -1.13671875 14.14257812 C-1.13605809 12.46874962 -1.13477717 10.79492123 -1.1328125 9.12109375 C-1.13483673 8.32319931 -1.13686096 7.52530487 -1.13894653 6.70323181 C-1.11495544 1.11495544 -1.11495544 1.11495544 0 0 Z " fill="#FFFFFF" transform="translate(250,271)"/>
<path d="M0 0 C1.32 0.33 2.64 0.66 4 1 C4.0740324 6.37513189 4.12854569 11.74996854 4.16479492 17.12548828 C4.17990251 18.95496793 4.20038968 20.78441125 4.22631836 22.61376953 C4.26261585 25.23999992 4.27970615 27.86575249 4.29296875 30.4921875 C4.30845261 31.31306854 4.32393646 32.13394958 4.33988953 32.97970581 C4.34057617 35.28466797 4.34057617 35.28466797 4 39 C3.01 39.66 2.02 40.32 1 41 C-0.47729492 39.99023438 -0.47729492 39.99023438 -2 38 C-2.28608245 35.30613513 -2.39675558 32.84839899 -2.36328125 30.15625 C-2.36377975 29.39074829 -2.36427826 28.62524658 -2.36479187 27.83654785 C-2.36245307 26.21929323 -2.35273587 24.60203486 -2.33618164 22.98486328 C-2.31258681 20.50910908 -2.31562205 18.03443183 -2.32226562 15.55859375 C-2.31668874 13.98697275 -2.30957879 12.41535628 -2.30078125 10.84375 C-2.30169266 10.10306274 -2.30260406 9.36237549 -2.30354309 8.59924316 C-2.25198479 4.86264194 -2.12552576 3.18828864 0 0 Z " fill="#FFFFFF" transform="translate(385,271)"/>
<path d="M0 0 C0.99 0.33 1.98 0.66 3 1 C3 1.99 3 2.98 3 4 C1.68 4 0.36 4 -1 4 C-0.67 2.68 -0.34 1.36 0 0 Z " fill="#FFFFFF" transform="translate(92,229)"/>
</svg>
